<?xml version="1.0" standalone="no"?>
<!DOCTYPE svg PUBLIC "-//W3C//DTD SVG 20010904//EN"
 "http://www.w3.org/TR/2001/REC-SVG-20010904/DTD/svg10.dtd">
<svg version="1.0" xmlns="http://www.w3.org/2000/svg"
 width="300.000000pt" height="86.000000pt" viewBox="0 0 300.000000 86.000000"
 preserveAspectRatio="xMidYMid meet">
<metadata>
Created by potrace 1.10, written by Peter Selinger 2001-2011
</metadata>
<g transform="translate(0.000000,86.000000) scale(0.100000,-0.100000)"
fill="#000000" stroke="none">
<path d="M400 849 c-67 -7 -108 -27 -168 -82 -64 -60 -102 -144 -102 -228 l0
-65 -42 -10 c-53 -12 -81 -47 -80 -102 0 -23 6 -50 12 -61 12 -24 60 -51 90
-51 19 0 20 -6 20 -103 0 -118 12 -141 75 -141 42 0 73 26 81 71 8 44 37 60
70 38 14 -9 24 -25 24 -38 0 -53 54 -85 110 -65 28 9 44 33 54 79 11 49 71 49
82 1 14 -67 51 -96 108 -85 45 9 56 37 56 145 l0 98 26 0 c16 0 39 13 60 34
28 28 34 41 34 78 -1 60 -44 108 -98 108 -17 0 -20 9 -24 74 -13 204 -172 329
-388 305z m106 -30 c143 -26 237 -132 251 -283 l6 -64 -28 -4 c-16 -2 -30 -8
-32 -14 -3 -8 20 -13 68 -16 60 -3 74 -8 90 -27 11 -13 19 -35 19 -50 0 -54
-54 -84 -140 -78 -44 3 -51 -26 -7 -31 l27 -3 0 -94 c0 -89 -1 -95 -24 -110
-34 -22 -63 -6 -72 40 -7 40 -45 75 -79 75 -34 0 -72 -35 -79 -75 -9 -46 -38
-62 -72 -40 -15 9 -24 25 -24 41 0 14 -11 36 -25 49 -46 47 -120 23 -133 -44
-10 -46 -40 -66 -70 -45 -20 14 -22 24 -22 110 0 93 0 94 24 94 14 0 27 4 31
9 10 16 -18 25 -78 26 -49 0 -62 4 -78 24 -10 13 -19 38 -19 56 0 48 30 69
106 75 66 5 91 22 40 28 l-29 4 5 68 c10 141 107 253 241 280 23 4 42 8 43 9
0 1 27 -4 60 -10z"/>
<path d="M272 633 c-7 -3 -19 -18 -28 -35 -38 -74 54 -144 114 -88 60 57 -8
155 -86 123z m62 -39 c36 -35 0 -87 -44 -64 -25 13 -26 55 -2 69 23 14 28 14
46 -5z"/>
<path d="M555 615 c-14 -13 -25 -36 -25 -50 0 -33 41 -75 73 -75 40 0 77 36
77 75 0 24 -7 39 -26 54 -35 28 -69 26 -99 -4z m79 -24 c32 -36 -3 -83 -45
-61 -24 13 -25 56 -1 69 24 14 26 14 46 -8z"/>
<path d="M1100 301 c0 -160 0 -161 23 -161 21 0 22 2 19 93 -6 163 -2 166 46
29 57 -158 64 -159 116 -10 21 62 42 116 45 120 3 4 4 -47 3 -112 -4 -120 -4
-120 20 -120 l23 0 -3 160 c-3 157 -3 160 -25 160 -19 0 -27 -15 -61 -108 -21
-59 -43 -118 -48 -132 -9 -22 -15 -11 -58 105 -43 119 -50 130 -74 133 l-26 3
0 -160z"/>
<path d="M1462 438 c42 -64 78 -126 78 -135 0 -5 -20 -42 -45 -82 -25 -40 -45
-75 -45 -77 0 -2 11 -4 24 -4 19 0 30 13 58 66 l35 67 38 -67 c30 -54 41 -66
62 -66 l25 0 -23 38 c-13 20 -35 57 -50 81 l-27 44 49 79 50 79 -27 -3 c-22
-2 -34 -15 -58 -60 -17 -32 -33 -58 -36 -58 -3 0 -20 27 -38 60 -27 49 -38 60
-59 60 -24 0 -25 -1 -11 -22z"/>
<path d="M1763 440 c-53 -48 -33 -99 56 -150 69 -38 85 -68 56 -100 -24 -26
-66 -25 -99 1 -25 19 -29 20 -43 7 -13 -14 -12 -18 14 -35 39 -28 73 -34 116
-22 66 18 88 84 45 134 -13 14 -45 38 -73 53 -39 21 -51 33 -53 54 -4 38 33
56 78 38 16 -7 30 -17 30 -23 0 -6 8 -3 18 7 16 16 16 18 -7 37 -32 26 -110
26 -138 -1z"/>
<path d="M1952 443 c3 -14 14 -18 52 -18 l48 0 -2 -142 -1 -143 26 0 26 0 -1
143 -2 142 48 0 c38 0 49 4 52 18 3 15 -8 17 -123 17 -115 0 -126 -2 -123 -17z"/>
<path d="M2284 441 c-85 -52 -86 -223 -2 -284 34 -25 108 -26 144 -2 58 38 80
153 45 232 -32 70 -120 95 -187 54z m126 -39 c73 -74 35 -232 -57 -232 -75 0
-117 104 -79 194 28 68 89 85 136 38z"/>
<path d="M2540 301 c0 -161 0 -161 23 -161 22 0 23 3 19 70 l-4 70 29 0 c40 0
56 -16 83 -83 18 -47 27 -57 46 -57 l23 0 -25 57 c-13 32 -29 66 -35 76 -8 15
-5 22 15 38 21 16 26 29 26 63 0 64 -23 80 -121 85 l-79 3 0 -161z m148 107
c17 -14 15 -63 -4 -82 -9 -10 -33 -16 -60 -16 l-44 0 0 53 c0 30 2 56 4 58 8
8 90 -3 104 -13z"/>
<path d="M2810 300 l0 -160 95 0 c78 0 95 3 95 15 0 12 -15 15 -75 15 l-75 0
0 60 0 60 69 0 c59 0 69 2 67 17 -2 14 -14 16 -69 14 l-67 -2 0 53 0 53 75 -3
c70 -3 75 -2 75 17 0 20 -5 21 -95 21 l-95 0 0 -160z"/>
</g>
</svg>
