<?xml version="1.0" encoding="UTF-8"?>
<svg version="1.1" xmlns="http://www.w3.org/2000/svg" width="1480" height="426">
<path  d="M0 0 C0.55139648 0.47163574 1.10279297 0.94327148 1.67089844 1.42919922 C30.25439548 26.18200472 50.018987 60.52088171 56 98 C56.17805176 99.1147168 56.35610352 100.22943359 56.53955078 101.37792969 C58.12071392 112.44746478 58.23485436 123.33423701 58.125 134.5 C58.11493609 136.30598454 58.10581635 138.1119746 58.09765625 139.91796875 C58.07594514 144.27878587 58.04160945 148.63932923 58 153 C59.07145264 152.98151001 59.07145264 152.98151001 60.16455078 152.96264648 C77.15256171 152.79279492 91.35215442 157.66646746 103.78125 169.55078125 C114.73947665 181.6472744 119.50911584 196.57235171 118.84765625 212.71875 C117.049951 228.19613614 109.94779679 241.94429202 98 252 C87.93003035 259.14802763 77.54968346 263.21628793 65.1875 263.0625 C64.49462891 263.05798828 63.80175781 263.05347656 63.08789062 263.04882812 C61.39188932 263.03713156 59.69593297 263.01919924 58 263 C58.00888245 264.09865891 58.01776489 265.19731781 58.0269165 266.32926941 C58.10832601 276.72947571 58.16811994 287.12961658 58.20724869 297.5300703 C58.22804209 302.87589582 58.25620769 308.22146223 58.30175781 313.56713867 C58.34551141 318.73485643 58.36919898 323.90232639 58.37950897 329.07021523 C58.3868477 331.03280851 58.40117719 332.99538964 58.42292023 334.95787621 C58.58464301 350.17242478 58.08714988 363.37028747 47 375 C46.47664063 375.56332031 45.95328125 376.12664062 45.4140625 376.70703125 C37.39495003 384.43276156 25.97964905 387.40941881 15.10546875 387.27734375 C1.99943376 386.10686767 -6.97847514 380.13723696 -15.24609375 370.31640625 C-20.65224962 363.17642756 -21.76241537 355.7361848 -22.69848633 347.00244141 C-23.59440981 339.83358362 -26.24634666 334.61597067 -31.5 329.625 C-37.49087493 325.7309313 -42.99441351 325.21395944 -50 326 C-55.84898879 327.7359562 -59.62783368 330.89357671 -63 336 C-65.19816353 340.70903653 -66.0919603 345.1433012 -66.375 350.3125 C-67.23235977 361.68045542 -72.60909096 370.49234455 -81 378 C-89.99414504 384.87274734 -100.68998185 388.25666868 -112 387 C-122.95845657 385.11061094 -133.13446974 379.91845842 -140 371 C-145.14767341 363.39989727 -146.91140967 355.83324665 -147.79980469 346.85058594 C-148.54909498 340.28812045 -150.7300195 334.89755978 -155.76635742 330.43481445 C-162.02916441 325.81071908 -167.42970538 325.26471831 -175 326 C-180.86470891 327.72491439 -184.58137172 330.92089512 -188 336 C-190.51841973 341.13011427 -191.22081005 345.57093665 -191.8125 351.25 C-193.29539047 363.28054689 -198.43920369 372.48684605 -208 380 C-217.99938883 386.32519479 -228.53203858 388.62964422 -240.20703125 386.3828125 C-250.01862901 383.75241974 -258.48096431 379.03860666 -264.4375 370.625 C-265.30482596 369.09069804 -266.15796885 367.54832824 -267 366 C-267.55019806 365.06463913 -267.55019806 365.06463913 -268.11151123 364.11038208 C-272.63772382 354.97636585 -271.49602255 344.60024085 -271.390625 334.6796875 C-271.38315469 332.60890247 -271.3774655 330.53811033 -271.37347412 328.46731567 C-271.35828002 323.04537063 -271.31905226 317.6238615 -271.2746582 312.2020874 C-271.23357069 306.6582224 -271.21543442 301.11428623 -271.1953125 295.5703125 C-271.15255164 284.71335127 -271.08437636 273.85671204 -271 263 C-272.52524292 263.01957764 -272.52524292 263.01957764 -274.08129883 263.03955078 C-275.4357073 263.05010918 -276.7901183 263.06034602 -278.14453125 263.0703125 C-278.81230591 263.07973877 -279.48008057 263.08916504 -280.16809082 263.09887695 C-294.56474247 263.17814882 -307.29601699 256.536555 -317.5234375 246.70703125 C-328.64064747 234.55525442 -333.5156845 219.58799093 -332.84765625 203.28125 C-331.11395277 188.35488865 -324.30413314 174.31824186 -312.51953125 164.6953125 C-301.28691912 157.13724481 -290.29414618 152.89369616 -276.671875 152.96875 C-275.60549805 152.97326172 -274.53912109 152.97777344 -273.44042969 152.98242188 C-272.23241699 152.99112305 -272.23241699 152.99112305 -271 153 C-271.02094727 151.75202637 -271.04189453 150.50405273 -271.06347656 149.21826172 C-271.13729486 144.47310418 -271.18230091 139.72799405 -271.21972656 134.98242188 C-271.23952598 132.95010781 -271.26657271 130.91784811 -271.30175781 128.88574219 C-272.04751311 84.62297196 -256.47708239 44.12449225 -226 12 C-225.53255371 11.50000488 -225.06510742 11.00000977 -224.58349609 10.48486328 C-166.14672684 -51.69518656 -64.31662647 -55.12044411 0 0 Z M-139 -18 C-139.71736328 -17.83902832 -140.43472656 -17.67805664 -141.17382812 -17.51220703 C-178.15208257 -9.03327248 -211.20244051 15.23881072 -231.42236328 47.25195312 C-237.34226289 57.08522242 -242.17615534 67.17984649 -246 78 C-246.37769531 79.06347656 -246.75539063 80.12695312 -247.14453125 81.22265625 C-250.03467541 89.95803578 -251.72776758 98.90224 -253 108 C-253.09933838 108.69544922 -253.19867676 109.39089844 -253.30102539 110.10742188 C-254.35109183 118.74479659 -254.10899322 127.44041744 -254.0625 136.125 C-254.05747437 137.76562363 -254.05291335 139.40624876 -254.04882812 141.046875 C-254.03790805 145.03128742 -254.02070218 149.0156269 -254 153 C-253.39003174 153.00410889 -252.78006348 153.00821777 -252.15161133 153.01245117 C-249.37094208 153.04547575 -246.59243843 153.11612568 -243.8125 153.1875 C-242.37293945 153.19620117 -242.37293945 153.19620117 -240.90429688 153.20507812 C-236.169448 153.35253017 -233.73378504 153.44714825 -229.86328125 156.36328125 C-228 159 -228 159 -227.375 162 C-228.25267958 166.21286199 -229.53453743 167.42884173 -233 170 C-236.75247868 170.71346925 -240.44854368 170.62589938 -244.2578125 170.56640625 C-245.35664764 170.57204086 -246.45548279 170.57767548 -247.58761597 170.58348083 C-251.10051041 170.59993376 -254.61214943 170.58440717 -258.125 170.5625 C-261.61631508 170.5458402 -265.10678479 170.53692679 -268.59811401 170.55223083 C-270.76748961 170.56141816 -272.93704496 170.55266158 -275.10623169 170.52259827 C-286.66209583 170.56380174 -296.0858389 174.30983208 -304.5625 182.1875 C-311.70171768 189.59522808 -314.49918657 197.78991344 -315.3125 207.875 C-315.03884257 216.46100186 -312.09069615 224.16433435 -307 231 C-306.39800781 231.82371094 -305.79601562 232.64742187 -305.17578125 233.49609375 C-302.85305828 236.16910169 -300.62339795 237.81875058 -297.625 239.6875 C-296.25214844 240.55955078 -296.25214844 240.55955078 -294.8515625 241.44921875 C-286.33720952 246.07962715 -277.61614216 246.13564172 -268.17578125 246.17578125 C-266.07485953 246.19895778 -263.97394801 246.22307419 -261.87304688 246.24804688 C-258.58122684 246.28327854 -255.28978927 246.312592 -251.99780273 246.32592773 C-248.80666969 246.34136219 -245.61662724 246.38151181 -242.42578125 246.42578125 C-240.94758659 246.42291862 -240.94758659 246.42291862 -239.43952942 246.41999817 C-232.66079295 246.54176075 -232.66079295 246.54176075 -229.37963867 248.81713867 C-227.33788828 252.04759173 -227.46630187 254.26411307 -228 258 C-229.328125 260.171875 -229.328125 260.171875 -232 262 C-235.74216552 262.6420382 -239.45936215 262.697085 -243.25 262.75 C-244.796875 262.79447266 -244.796875 262.79447266 -246.375 262.83984375 C-248.91674495 262.91044778 -251.45757783 262.96319009 -254 263 C-254.09292776 274.17061224 -254.16388036 285.34113159 -254.20724869 296.51205254 C-254.2280697 301.69990629 -254.2562867 306.8874944 -254.30175781 312.07519531 C-254.34541174 317.08728754 -254.36917832 322.09912521 -254.37950897 327.11139297 C-254.38686537 329.01785409 -254.40123032 330.92430222 -254.42292023 332.83065414 C-254.83129681 348.59533446 -254.83129681 348.59533446 -248.03515625 362.4375 C-247.38417969 362.953125 -246.73320312 363.46875 -246.0625 364 C-245.41410156 364.53625 -244.76570313 365.0725 -244.09765625 365.625 C-238.30282804 369.42347212 -232.75996866 369.7500527 -226 369 C-219.81431724 367.23114894 -215.41220692 363.38488904 -212 358 C-209.73060031 353.3104983 -208.91525033 348.85990972 -208.625 343.6875 C-207.93173921 333.80160118 -203.38743253 323.75064407 -195.91796875 317.1640625 C-187.50379714 310.7209004 -177.47853407 307.13997881 -166.81640625 307.62109375 C-156.19572404 309.04995113 -146.36442811 312.87088019 -139.19140625 321.06640625 C-133.58282538 328.8848519 -131.09323485 337.1325015 -130.125 346.625 C-129.32694976 353.39466758 -127.84249619 358.10452245 -123 363 C-116.43314514 368.13927772 -110.31526171 370.01147455 -102 369 C-94.62225835 366.68837963 -89.72017723 362.75919526 -86 356 C-84.64359634 352.60899085 -84.05421607 349.49348946 -83.65625 345.87109375 C-82.33345588 334.283926 -78.96649908 324.72783599 -70.203125 316.68359375 C-61.00997308 309.65833049 -50.44673262 306.8194623 -39 308 C-28.41830181 310.12908867 -19.00016154 314.31414231 -12.625 323.3125 C-11.71047896 324.85220209 -10.83428362 326.41538582 -10 328 C-9.61070312 328.73734375 -9.22140625 329.4746875 -8.8203125 330.234375 C-6.42567579 335.44314682 -5.62169367 340.45811311 -5.0625 346.125 C-4.28005833 353.71995906 -2.78565109 358.65058605 3 363.76953125 C9.44556761 368.82882788 14.85086309 369.91731122 23 369 C30.39708583 366.73860519 35.20157784 362.69979998 39 356 C40.29458572 352.11624284 40.13103781 348.44439883 40.11352539 344.39770508 C40.11374443 343.08031593 40.11374443 343.08031593 40.1139679 341.73631287 C40.11327072 338.83069395 40.10548739 335.92513898 40.09765625 333.01953125 C40.09579138 331.00599706 40.0943678 328.99246242 40.09336853 326.97892761 C40.08954879 321.67708078 40.07972312 316.37526131 40.06866455 311.07342529 C40.05843877 305.66418833 40.0538684 300.25494696 40.04882812 294.84570312 C40.03810039 284.23045673 40.02103046 273.61523064 40 263 C39.34926514 262.98541748 38.69853027 262.97083496 38.02807617 262.95581055 C35.08061694 262.88135451 32.13429358 262.78468734 29.1875 262.6875 C28.16333984 262.66494141 27.13917969 262.64238281 26.08398438 262.61914062 C25.10107422 262.58369141 24.11816406 262.54824219 23.10546875 262.51171875 C22.19949951 262.48553467 21.29353027 262.45935059 20.36010742 262.43237305 C17.58987658 261.92486515 16.67532414 261.2268684 15 259 C14.6015625 256.84375 14.6015625 256.84375 14.625 254.5 C14.61726563 253.7265625 14.60953125 252.953125 14.6015625 252.15625 C15.10291149 249.44306723 15.85100245 248.6964662 18 247 C20.10227966 246.62145996 20.10227966 246.62145996 22.55639648 246.61523438 C23.47843369 246.60512329 24.40047089 246.59501221 25.35044861 246.58459473 C26.84566795 246.58912659 26.84566795 246.58912659 28.37109375 246.59375 C29.9201516 246.57749573 29.9201516 246.57749573 31.50050354 246.56091309 C34.81289844 246.52659082 38.12495064 246.51106348 41.4375 246.5 C67.5107516 247.0507432 67.5107516 247.0507432 90 235.21875 C97.78529674 227.0307655 101.3641936 216.85164345 101.21484375 205.68359375 C100.34827245 194.85933045 94.9923667 186.23763742 87.3203125 178.828125 C80.88416753 173.7572229 73.08509947 170.8902235 64.92773438 170.8581543 C63.91988892 170.85111984 62.91204346 170.84408539 61.87365723 170.83683777 C60.25010315 170.83059135 60.25010315 170.83059135 58.59375 170.82421875 C56.30077197 170.80103052 54.00780317 170.7769136 51.71484375 170.75195312 C48.1003593 170.71676788 44.48621734 170.68744899 40.87158203 170.67407227 C37.3827183 170.65863482 33.89485154 170.61846328 30.40625 170.57421875 C29.32388062 170.57612717 28.24151123 170.57803558 27.12634277 170.58000183 C25.61457458 170.55526543 25.61457458 170.55526543 24.07226562 170.5300293 C23.18720337 170.52416306 22.30214111 170.51829681 21.39025879 170.51225281 C18.23366978 169.83576891 17.01638458 168.46352264 15 166 C14.29117697 163.09215119 14.66028211 161.057461 15 158 C16.54338091 155.82523599 17.63665273 155.18167363 20 154 C21.5195764 153.84876169 23.04472502 153.75118307 24.5703125 153.68359375 C25.46621094 153.64169922 26.36210937 153.59980469 27.28515625 153.55664062 C28.22230469 153.51732422 29.15945313 153.47800781 30.125 153.4375 C31.06988281 153.39431641 32.01476562 153.35113281 32.98828125 153.30664062 C35.32537092 153.20040928 37.6625683 153.09836824 40 153 C41.13711751 120.69979668 41.13711751 120.69979668 36 89 C35.78569336 88.21915039 35.57138672 87.43830078 35.35058594 86.63378906 C32.18987008 75.44016217 27.54422048 65.19690802 22 55 C21.44570313 53.95328125 20.89140625 52.9065625 20.3203125 51.828125 C2.84227975 20.21713754 -28.54243243 -4.47845017 -63 -15 C-87.81502656 -21.74612617 -113.75967173 -23.96643441 -139 -18 Z " fill="white" transform="translate(333,39)"/>
<path d="M0 0 C8.25 0 16.5 0 25 0 C31.89177237 18.73996775 38.72898284 37.49827442 45.49234009 56.28503418 C46.91253638 60.22985121 48.33447087 64.17404054 49.7565918 68.11816406 C53.60715706 78.79847786 57.45617267 89.47933716 61.29083252 100.16537476 C62.52047648 103.59149621 63.75195019 107.01695824 64.98370361 110.44232178 C65.79380436 112.69794438 66.60081194 114.95465766 67.40771484 117.21142578 C67.88232096 118.53163522 68.35708136 119.8517892 68.83203125 121.171875 C69.43108276 122.8439502 69.43108276 122.8439502 70.04223633 124.54980469 C70.77577626 126.90949154 70.77577626 126.90949154 72 128 C72.23120544 127.35792099 72.46241089 126.71584198 72.70062256 126.05430603 C79.79070457 106.36603105 86.89002626 86.68110033 94 67 C94.24579048 66.31959656 94.49158096 65.63919312 94.74481964 64.93817139 C97.74920699 56.62195077 100.75781836 48.30728028 103.77282715 39.99490356 C104.62595776 37.64164795 105.47810577 35.28803585 106.32922363 32.93405151 C107.5200869 29.64121625 108.7146505 26.34974588 109.91015625 23.05859375 C110.25202469 22.11101196 110.59389313 21.16343018 110.94612122 20.18713379 C113.4297193 13.3682448 116.17406754 6.68442308 119 0 C127.25 0 135.5 0 144 0 C144 52.14 144 104.28 144 158 C137.07 158 130.14 158 123 158 C122.67 120.38 122.34 82.76 122 44 C118.555625 53.44625 115.11125 62.8925 111.5625 72.625 C109.45660523 78.39615519 107.35063148 84.16727641 105.2421875 89.9375 C104.98424282 90.64342285 104.72629814 91.3493457 104.46053696 92.07666016 C99.39549473 105.93570425 94.30347456 119.78466715 89.1875 133.625 C88.83019806 134.59221985 88.47289612 135.5594397 88.10476685 136.55596924 C87.10591439 139.25900609 86.10597614 141.96163783 85.10546875 144.6640625 C84.81693024 145.44450928 84.52839172 146.22495605 84.23110962 147.02905273 C83.96430389 147.74859131 83.69749817 148.46812988 83.42260742 149.20947266 C83.19441818 149.82553375 82.96622894 150.44159485 82.73112488 151.07632446 C81.84970989 153.39543096 80.92140428 155.69648931 80 158 C74.72 158 69.44 158 64 158 C59.17502581 146.80795204 55.04405578 135.38622634 50.875 123.9375 C41.38597649 97.90704451 31.67289473 71.96408586 22 46 C21.67 82.96 21.34 119.92 21 158 C14.07 158 7.14 158 0 158 C0 105.86 0 53.72 0 0 Z " fill="white" transform="translate(544,199)"/>
<path d="M0 0 C1.03769531 -0.01160156 2.07539062 -0.02320313 3.14453125 -0.03515625 C19.51615773 0.02600798 33.44481023 5.7012904 45.2890625 17.06640625 C62.35849471 34.88978864 67.73385896 58.71899395 67.49609375 82.78515625 C66.85758832 107.30243898 61.19530445 130.98044955 42.8515625 148.41015625 C30.23104063 158.95521024 16.31881577 162.73641242 0.1875 162.6875 C-0.86373047 162.70361328 -1.91496094 162.71972656 -2.99804688 162.73632812 C-18.90835343 162.74610705 -32.74942603 157.74507138 -44.26171875 146.63671875 C-45.00035156 145.89035156 -45.73898437 145.14398438 -46.5 144.375 C-47.43779297 143.48748047 -47.43779297 143.48748047 -48.39453125 142.58203125 C-64.28828914 126.32949779 -67.88753247 100.76925969 -67.80249023 79.07104492 C-67.32407153 55.67303243 -61.3799217 33.28387525 -44.5 16.375 C-43.86191406 15.7253125 -43.22382812 15.075625 -42.56640625 14.40625 C-30.85553346 3.30405043 -15.70143279 -0.17554397 0 0 Z M-31.8125 32 C-45.69030485 50.7691623 -47.82383393 75.507742 -45.00390625 98.08203125 C-42.57278067 113.67565147 -36.03556367 129.11455019 -23.125 138.71875 C-12.64181672 145.33313945 -1.45630011 146.85611737 10.5625 144.25 C16.41445113 142.63902754 20.82026625 140.20466975 25.5 136.375 C26.18835937 135.82199219 26.87671875 135.26898438 27.5859375 134.69921875 C39.87183389 123.70781336 44.73655277 105.06914756 45.62451172 89.14160156 C46.37669969 66.89365676 43.45926546 45.09859266 27.75 28.125 C20.13901878 20.84745224 10.59578661 17.51177856 0.1875 17.0625 C-12.50627854 17.45987046 -23.51371873 22.31546399 -31.8125 32 Z " fill="white" transform="translate(1161.5,196.625)"/>
<path d="M0 0 C76.62857143 0 76.62857143 0 90 13 C98.80705476 22.46372113 100.34306483 33.78384082 100.2109375 46.3359375 C99.510708 58.49918328 94.90944767 69.05346886 86.00390625 77.4609375 C82.1977823 80.38415941 76.93463374 84 72 84 C72.42410156 84.41507812 72.84820313 84.83015625 73.28515625 85.2578125 C84.32989446 96.86085615 89.2717548 113.64183976 95.07299805 128.25366211 C96.45096959 131.72139689 97.84107708 135.18409662 99.23242188 138.64648438 C100.11269721 140.85127595 100.99228045 143.05634401 101.87109375 145.26171875 C102.28660995 146.2960051 102.70212616 147.33029144 103.13023376 148.3959198 C103.50805496 149.35154312 103.88587616 150.30716644 104.27514648 151.29174805 C104.6093309 152.13110397 104.94351532 152.9704599 105.28782654 153.83525085 C106 156 106 156 106 159 C98.41 159 90.82 159 83 159 C81.85402344 156.0815625 80.70804688 153.163125 79.52734375 150.15625 C78.39273629 147.27298743 77.25708464 144.39013817 76.12133789 141.50732422 C75.34355752 139.53151505 74.56683208 137.55529023 73.79125977 135.57861328 C71.22516099 129.03978886 68.63306014 122.51216675 66 116 C65.67187317 115.18644043 65.34374634 114.37288086 65.00567627 113.53466797 C64.10370077 111.31844819 63.18315383 109.11115097 62.25390625 106.90625 C61.99641098 106.2716687 61.73891571 105.6370874 61.47361755 104.98327637 C59.65981477 100.76683602 57.54667329 97.91175298 54 95 C43.48810198 91.49603399 32.05023874 91.8185362 21 91 C21 113.44 21 135.88 21 159 C14.07 159 7.14 159 0 159 C0 106.53 0 54.06 0 0 Z M21 18 C21 36.48 21 54.96 21 74 C27.80625 74.061875 27.80625 74.061875 34.75 74.125 C36.85713379 74.15231201 36.85713379 74.15231201 39.00683594 74.18017578 C56.5254974 74.26633922 56.5254974 74.26633922 71.71484375 66.5 C78.63097711 59.19493982 79.52073798 51.08499297 79.2890625 41.3125 C78.73146455 34.92272888 76.73579884 29.49293736 72 25 C57.3683 14.9333904 37.50452787 18 21 18 Z " fill="white" transform="translate(1254,198)"/>
<path d="M0 0 C8.58 0 17.16 0 26 0 C26.98097656 1.78019531 27.96195313 3.56039062 28.97265625 5.39453125 C35.76662367 17.7206287 42.56580903 30.04388731 49.39205933 42.35214233 C50.36254969 44.1025443 51.33179571 45.85363599 52.30102539 47.60473633 C52.89004639 48.66587646 53.47906738 49.7270166 54.0859375 50.8203125 C54.6020459 51.75117676 55.1181543 52.68204102 55.64990234 53.64111328 C56.69634427 55.4694536 57.83145468 57.24718202 59 59 C63.80050971 51.17119967 68.27237596 43.17483012 72.6875 35.125 C73.39045186 33.84666584 74.0935787 32.56842789 74.796875 31.2902832 C76.2007568 28.73820547 77.60358446 26.18555336 79.00537109 23.63232422 C81.3109181 19.43301924 83.62080979 15.23610922 85.9309082 11.03930664 C87.95517792 7.36021926 89.97740116 3.68000622 92 0 C100.58 0 109.16 0 118 0 C111.24213108 12.38942635 111.24213108 12.38942635 107.85546875 18.08984375 C107.48799026 18.70921814 107.12051178 19.32859253 106.74189758 19.96673584 C105.55925871 21.95828426 104.37355206 23.9479827 103.1875 25.9375 C102.35544979 27.33633313 101.52341885 28.73517771 100.69140625 30.1340332 C93.07373397 42.92763342 85.35570746 55.65981701 77.59960938 68.36987305 C77.07173828 69.23781494 76.54386719 70.10575684 76 71 C75.42580322 71.89187012 74.85160645 72.78374023 74.26000977 73.70263672 C72.72145984 75.90971008 72.72145984 75.90971008 73.49609375 78.24609375 C73.99238281 79.15488281 74.48867188 80.06367188 75 81 C75.33918457 81.6305127 75.67836914 82.26102539 76.02783203 82.91064453 C77.34077742 85.31386578 78.69677868 87.68887456 80.0625 90.0625 C80.58489258 90.97370605 81.10728516 91.88491211 81.64550781 92.82373047 C86.75844369 101.68329075 92.073293 110.4183753 97.40039062 119.14990234 C102.30850811 127.1970655 107.17396961 135.26812216 111.98547363 143.37347412 C112.7008813 144.57842885 113.41710285 145.78290076 114.13415527 146.98687744 C115.12430174 148.65003314 116.11107058 150.31519832 117.09765625 151.98046875 C117.65976807 152.92817139 118.22187988 153.87587402 118.80102539 154.85229492 C120 157 120 157 120 158 C111.74886215 159.51611014 103.09615595 160.72114687 95 158 C88.7820486 152.79472731 85.8136668 144.73837325 82.59912109 137.48242188 C79.95778577 131.73035972 76.76998501 126.30006302 73.625 120.8125 C72.46718077 118.73785414 71.31087103 116.66236498 70.15625 114.5859375 C66.6144214 108.27307393 62.87798515 102.11088538 59 96 C58.6282666 96.66829834 58.2565332 97.33659668 57.87353516 98.02514648 C51.18787562 110.03357996 44.47846662 122.0179358 37.4609375 133.8359375 C34.08095663 139.53219121 30.78648992 145.27837433 27.48950195 151.02294922 C26.82760864 152.17174561 26.82760864 152.17174561 26.15234375 153.34375 C25.76038818 154.02630859 25.36843262 154.70886719 24.96459961 155.41210938 C24 157 24 157 23 158 C21.14630389 158.08737645 19.28932459 158.10698153 17.43359375 158.09765625 C16.30888672 158.09443359 15.18417969 158.09121094 14.02539062 158.08789062 C12.84138672 158.07951172 11.65738281 158.07113281 10.4375 158.0625 C9.24962891 158.05798828 8.06175781 158.05347656 6.83789062 158.04882812 C3.89187774 158.03699675 0.94596319 158.02051287 -2 158 C2.64432584 149.28442998 7.62569673 140.78867418 12.6875 132.3125 C13.51453349 130.92419769 14.34135222 129.53576741 15.16796875 128.1472168 C16.89290849 125.25000538 18.61877494 122.35334894 20.34521484 119.45703125 C24.32095162 112.78499972 28.28291084 106.104787 32.24624634 99.42538452 C34.23663623 96.07108604 36.22753545 92.71709025 38.21875 89.36328125 C38.87810547 88.25251221 39.53746094 87.14174316 40.21679688 85.99731445 C42 83 42 83 43.86132812 80.47729492 C45.302152 77.98693061 45.302152 77.98693061 44.39038086 75.03662109 C43.00681823 72.01489115 41.50344999 69.23944581 39.75390625 66.4140625 C38.75883057 64.79371094 38.75883057 64.79371094 37.74365234 63.140625 C37.38889832 62.56892578 37.03414429 61.99722656 36.66864014 61.40820312 C34.74923148 58.31393377 32.85062711 55.20691299 30.94921875 52.1015625 C30.54910583 51.44923645 30.14899292 50.7969104 29.73675537 50.12481689 C25.04258992 42.46035573 20.45672125 34.73201718 15.875 27 C15.08667762 25.67138215 14.29834772 24.34276876 13.51000977 23.01416016 C8.97315975 15.3620624 4.47356744 7.68931486 0 0 Z " fill="white" transform="translate(715,199)"/>
<path d="M0 0 C31.35 0 62.7 0 95 0 C95 5.94 95 11.88 95 18 C70.58 18 46.16 18 21 18 C21 33.84 21 49.68 21 66 C42.78 66 64.56 66 87 66 C87 71.94 87 77.88 87 84 C65.22 84 43.44 84 21 84 C21 102.48 21 120.96 21 140 C45.42 140 69.84 140 95 140 C95 145.94 95 151.88 95 158 C63.65 158 32.3 158 0 158 C0 105.86 0 53.72 0 0 Z " fill="white" transform="translate(1385,199)"/>
<path d="M0 0 C3.69908153 3.66364971 6.81445095 7.2488064 9 12 C7.28061972 13.49053106 5.54907187 14.96703425 3.8125 16.4375 C2.84957031 17.26121094 1.88664063 18.08492187 0.89453125 18.93359375 C-1.92209238 20.94438174 -3.60635331 21.6587741 -7 22 C-7.36609375 21.49210937 -7.7321875 20.98421875 -8.109375 20.4609375 C-13.64574492 13.42183861 -20.57526066 9.80824645 -29 7 C-44.27865739 5.92553333 -44.27865739 5.92553333 -57.640625 12.42578125 C-62.40830755 17.72777305 -63.43266258 22.66224193 -63.23828125 29.578125 C-62.64008771 35.65812489 -59.31136282 39.27900076 -54.796875 43.02734375 C-46.76805195 48.69013096 -37.81126186 53.08014504 -29.0625 57.51171875 C-13.15058676 65.60330179 3.7765702 75.14985251 10 93 C12.90168626 105.43579828 12.72566483 117.47344934 6.3984375 128.79296875 C-0.81039 140.17002891 -12.31305915 146.56549717 -25.32885742 149.53051758 C-43.09765847 152.65357803 -61.96408569 150.23434047 -77 140 C-82.2745317 135.77739046 -86.8701785 131.35277547 -91 126 C-86.88380164 121.08064098 -82.59589638 116.47352044 -78 112 C-77.360625 112.680625 -76.72125 113.36125 -76.0625 114.0625 C-65.04216941 124.98996264 -52.78066013 131.42046732 -37.07080078 131.36791992 C-29.34223616 131.17957075 -24.04927378 128.91991312 -17.625 124.875 C-13.30209586 120.1403907 -10.85936184 114.39101819 -10.5625 107.9375 C-11.46702245 99.79679795 -13.78690175 93.51266546 -20 88 C-27.76550794 82.00006034 -36.89569711 77.89198395 -45.57666016 73.41235352 C-61.15519233 65.34141011 -78.51742316 56.13708351 -84.4375 38.5625 C-87.24976632 28.12559785 -86.73853582 18.3023737 -81.74609375 8.55078125 C-75.52661037 -1.43089643 -66.29499997 -8.15660538 -54.9375 -11.25 C-35.76304906 -15.33130883 -15.5271697 -12.76083487 0 0 Z " fill="white" transform="translate(941,209)"/>
<path d="M0 0 C39.27 0 78.54 0 119 0 C119 5.61 119 11.22 119 17 C103.16 17 87.32 17 71 17 C71 63.86 71 110.72 71 159 C63.74 159 56.48 159 49 159 C49 112.14 49 65.28 49 17 C32.83 17 16.66 17 0 17 C0 11.39 0 5.78 0 0 Z " fill="white" transform="translate(964,198)"/>
<path d="M0 0 C9.47331242 6.1745697 14.82218805 14.22679867 18.125 24.9609375 C19.15955908 35.56516809 17.96842345 45.95525034 11.625 54.8984375 C4.06537639 63.85659147 -3.82028842 69.06662389 -15.625 70.3984375 C-26.13778172 70.9361757 -35.41336888 68.28716172 -43.8203125 61.83984375 C-51.19546315 55.09564705 -55.89067597 46.03521118 -56.86328125 36.0859375 C-57.17207115 25.42455992 -54.5874962 15.61564709 -47.53125 7.453125 C-34.88507643 -5.34853431 -16.0498335 -9.02803134 0 0 Z M-34.4375 20.5234375 C-38.4128433 25.15695022 -38.99024716 28.9166376 -38.89453125 34.89453125 C-38.36528331 40.05661623 -36.49552899 43.76406699 -32.71875 47.31640625 C-27.07030586 51.75296405 -22.88650111 53.01574266 -15.625 52.5234375 C-9.33215629 50.35349139 -4.63769473 47.69572122 -1.3125 41.8359375 C1.04478367 36.64991344 1.40118343 31.84487143 -0.28515625 26.38671875 C-2.54910557 21.24137938 -5.97228223 17.6432413 -10.625 14.5234375 C-19.95091526 11.41479908 -27.91271865 13.3527687 -34.4375 20.5234375 Z " fill="white" transform="translate(318.625,113.4765625)"/>
<path d="M0 0 C9.1305387 6.88015475 13.56436909 14.67449064 15.8125 25.875 C17.02033275 36.15530375 14.63636148 45.30885041 8.6015625 53.70703125 C1.26101301 62.6022386 -6.69471609 67.44032296 -18.1875 68.75 C-28.65193563 69.28526525 -38.15915166 66.71034771 -46.41796875 60.0859375 C-55.00393545 51.99934222 -58.97711862 42.81374437 -59.5625 31.125 C-59.28732879 20.71705382 -55.64143295 11.17215807 -48.1875 3.875 C-34.29597236 -8.0787179 -15.60369574 -10.12830251 0 0 Z M-36.4375 18.3125 C-40.5115789 23.20796578 -41.66003824 26.94022208 -41.4921875 33.28125 C-40.88861923 38.41931831 -39.05204374 42.12125907 -35.28125 45.66796875 C-29.63280586 50.10452655 -25.44900111 51.36730516 -18.1875 50.875 C-11.92958455 48.71709812 -7.21784261 46.05906565 -3.875 40.25 C-1.46427219 34.96607822 -0.99713123 29.44610631 -2.84765625 23.89453125 C-5.62174962 18.45442606 -10.38367926 13.80960691 -16.1875 11.875 C-24.67394724 11.1822288 -30.55440633 11.73810755 -36.4375 18.3125 Z " fill="white" transform="translate(174.1875,115.125)"/>
</svg>
